<?xml version="1.0" encoding="utf-8"?>
<!-- Generator: Adobe Illustrator 25.0.1, SVG Export Plug-In . SVG Version: 6.00 Build 0)  -->
<svg version="1.1" id="Layer_1" xmlns="http://www.w3.org/2000/svg" xmlns:xlink="http://www.w3.org/1999/xlink" x="0px" y="0px"
	 viewBox="0 0 425 425" style="enable-background:new 0 0 425 425;" xml:space="preserve">
<style type="text/css">
	.st0{fill:#FEFEFE;}
	.st1{fill:#9B1C2E;}
</style>
<g>
	<g>
		<circle class="st0" cx="212.4" cy="212.5" r="209.6"/>
	</g>
	<g>
		<path class="st1" d="M125.8,304.5c4.9,0,9.4-2.7,11.6-7l30.9-58.7h-47.7c-7.3,0-13.1-5.9-13.1-13.1v-26.3
			c0-7.3,5.9-13.1,13.1-13.1H196l58.7-111.1c2.3-4.3,6.7-7,11.6-7h98.9C326.9,27.7,272.8,2.5,212.6,2.5c-116,0-210.1,94-210.1,210.1
			c0,32.9,7.6,64.2,21.2,92h102.1L125.8,304.5L125.8,304.5z"/>
		<path class="st1" d="M299.2,120.5c-4.9,0-9.4,2.7-11.6,7l-30.9,58.7h47.7c7.3,0,13.1,5.9,13.1,13.1v26.3c0,7.3-5.9,13.1-13.1,13.1
			H229l-58.7,111.1c-2.3,4.3-6.7,7-11.6,7H59.8c38.3,40.5,92.4,65.7,152.5,65.7c116,0,210.1-94,210.1-210.1c0-32.9-7.6-64.2-21.2-92
			H299.2L299.2,120.5L299.2,120.5z"/>
	</g>
</g>
</svg>
